<svg xmlns="http://www.w3.org/2000/svg" data-name="Layer 1" width="853.29744" height="818.19571" viewBox="0 0 853.29744 818.19571" xmlns:xlink="http://www.w3.org/1999/xlink">
    <title>Contact Illustration</title>
    <ellipse cx="426.64872" cy="725.19571" rx="426.64872" ry="93" fill="#f2f2f2"/>
    <path d="M877.41488,661.8953H236.58512a7.00787,7.00787,0,0,1-7-7V159.6047a7.00787,7.00787,0,0,1,7-7H877.41488a7.00786,7.00786,0,0,1,7,7V654.8953A7.00786,7.00786,0,0,1,877.41488,661.8953Z" transform="translate(-173.35128 -40.90215)" fill="#e6e6e6"/>
    <path d="M869.41488,172.6047H244.58512v466.291h624.82976Z" transform="translate(-173.35128 -40.90215)" fill="#fff"/>
    <path d="M886.6518,147.5286a12.31369,12.31369,0,0,0-12.31369-12.31357H229.573a12.31371,12.31371,0,0,0-12.31371,12.31371V674.52594a12.31371,12.31371,0,0,0,12.31371,12.31358h644.7688a12.31365,12.31365,0,0,0,12.31351-12.31351h0V147.5286Z" transform="translate(-173.35128 -40.90215)" fill="#3f3d56"/>
    <path d="M434.8453,174.95457H276.71113a3.82183,3.82183,0,0,0-3.82183,3.82183V340.79014a3.82183,3.82183,0,0,0,3.82183,3.82184H434.8453a3.82184,3.82184,0,0,0,3.82184-3.82184V178.7764A3.82184,3.82184,0,0,0,434.8453,174.95457Z" transform="translate(-173.35128 -40.90215)" fill="#e6e6e6"/>
    <path d="M617.69736,174.95457H459.56319a3.82183,3.82183,0,0,0-3.82184,3.82183V340.79014a3.82184,3.82184,0,0,0,3.82184,3.82184h158.1342a3.82183,3.82183,0,0,0,3.82183-3.82184V178.7764A3.82183,3.82183,0,0,0,617.69736,174.95457Z" transform="translate(-173.35128 -40.90215)" fill="#e6e6e6"/>
    <path d="M800.83694,174.95457H642.7027a3.82184,3.82184,0,0,0-3.82184,3.82183V340.79014a3.82184,3.82184,0,0,0,3.82184,3.82184h158.1342a3.82183,3.82183,0,0,0,3.82183-3.82184V178.7764A3.82184,3.82184,0,0,0,800.83694,174.95457Z" transform="translate(-173.35128 -40.90215)" fill="#e6e6e6"/>
    <path d="M434.8453,419.5691H276.71113a3.82183,3.82183,0,0,0-3.82183,3.82184V585.40468a3.82183,3.82183,0,0,0,3.82183,3.82183H434.8453a3.82184,3.82184,0,0,0,3.82184-3.82183V423.39094A3.82184,3.82184,0,0,0,434.8453,419.5691Z" transform="translate(-173.35128 -40.90215)" fill="#e6e6e6"/>
    <path d="M617.69736,419.5691H459.56319a3.82184,3.82184,0,0,0-3.82184,3.82184V585.40468a3.82184,3.82184,0,0,0,3.82184,3.82183h158.1342a3.82183,3.82183,0,0,0,3.82183-3.82183V423.39094A3.82183,3.82183,0,0,0,617.69736,419.5691Z" transform="translate(-173.35128 -40.90215)" fill="#e6e6e6"/>
    <path d="M800.83694,419.5691H642.7027a3.82184,3.82184,0,0,0-3.82184,3.82184V585.40468a3.82184,3.82184,0,0,0,3.82184,3.82183h158.1342a3.82183,3.82183,0,0,0,3.82183-3.82183V423.39094A3.82183,3.82183,0,0,0,800.83694,419.5691Z" transform="translate(-173.35128 -40.90215)" fill="#e6e6e6"/>
    <path d="M830.267,108.70191H840.606a6.01968,6.01968,0,0,1,6.01968,6.01968v15.72982a6.01968,6.01968,0,0,1-6.01968,6.01968H830.267a6.01968,6.01968,0,0,1-6.01968-6.01968V114.72159A6.01968,6.01968,0,0,1,830.267,108.70191Z" transform="translate(-173.35128 -40.90215)" fill="#e6e6e6"/>
    <path d="M794.9202,108.70191h10.339a6.01968,6.01968,0,0,1,6.01968,6.01968v15.72982a6.01968,6.01968,0,0,1-6.01968,6.01968H794.9202a6.01968,6.01968,0,0,1-6.01968-6.01968V114.72159A6.01968,6.01968,0,0,1,794.9202,108.70191Z" transform="translate(-173.35128 -40.90215)" fill="#e6e6e6"/>
    <path d="M759.57349,108.70191h10.339a6.01968,6.01968,0,0,1,6.01968,6.01968v15.72982a6.01968,6.01968,0,0,1-6.01968,6.01968h-10.339a6.01968,6.01968,0,0,1-6.01968-6.01968V114.72159A6.01968,6.01968,0,0,1,759.57349,108.70191Z" transform="translate(-173.35128 -40.90215)" fill="#e6e6e6"/>
    <path d="M353.23,216.71023H424.3a0,0,0,0,1,0,0v36.9811a0,0,0,0,1,0,0H336.19a0,0,0,0,1,0,0v-19.9421A17.03912,17.03912,0,0,1,353.23,216.71023Z" fill="#3f3d56"/>
    <path d="M531.83058,257.693h-56V218.58481l28,13.10009,28-13.10009Z" transform="translate(-173.35128 -40.90215)" fill="#3f3d56"/>
    <rect x="526.48489" y="257.693" width="56" height="39.10819" transform="translate(935.61849 513.5901) rotate(-180)" fill="#3f3d56"/>
    <path d="M553.75419,445.62864a4.41518,4.41518,0,0,1-3.14889-1.30664l-10-10c-1.7334-1.73341-1.7334-4.55517,0-6.28858L730.60452,237.93519a4.45552,4.45552,0,0,1,6.29639-.00148l10.00172,10a4.45552,4.45552,0,0,1,.00146,6.29639l-190,190A4.41512,4.41512,0,0,1,553.75419,445.62864Z" transform="translate(-173.35128 -40.90215)" fill="#6c63ff"/>
    <path d="M557.75419,445.62864a4.41518,4.41518,0,0,1-3.14889-1.30664l-10-10c-1.7334-1.73341-1.7334-4.55517,0-6.28858L734.60452,237.93519a4.45552,4.45552,0,0,1,6.29639-.00148l10.00172,10a4.45552,4.45552,0,0,1,.00146,6.29639l-190,190A4.41512,4.41512,0,0,1,557.75419,445.62864Z" transform="translate(-173.35128 -40.90215)" fill="#6c63ff"/>
    <path d="M756.95582,256.8096a6.41621,6.41621,0,0,0-4.5-1.87h-2.06a47.78885,47.78885,0,0,0-10.48,1.62,42.41446,42.41446,0,0,0-4.93,1.57005,41.42594,41.42594,0,0,0-4.7,2.34,43.81983,43.81983,0,0,0-8.66,7.29c-.26.3-.5.61-.74.92a43.517,43.517,0,0,0-8.55,19.93,42.92343,42.92343,0,0,0-1.33,10.46,24.27272,24.27272,0,0,0,7.05-1.76l1.89-13.66a1.00043,1.00043,0,0,1,1.49-.67c6.18,3.93,12.4,4.1,20.2.47a1.00412,1.00412,0,0,1,1.4.79l.32,3.11005a41.99621,41.99621,0,0,0,9.12-5.3,41.286,41.286,0,0,0,7.26-8.39,45.04055,45.04055,0,0,0,4.86-11.18l-5.15-4.39A6.27683,6.27683,0,0,0,756.95582,256.8096Z" transform="translate(-173.35128 -40.90215)" fill="#6c63ff"/>
</svg> 